<?xml version="1.0" encoding="utf-8"?>
<!-- Generator: Adobe Illustrator 25.2.1, SVG Export Plug-In . SVG Version: 6.00 Build 0)  -->
<svg version="1.1" id="Layer_1" xmlns="http://www.w3.org/2000/svg" xmlns:xlink="http://www.w3.org/1999/xlink" x="0px" y="0px"
	 viewBox="0 0 60 60" style="enable-background:new 0 0 60 60;" xml:space="preserve">
<g>
	<path d="M33.97,36.12c3.44,0,6.78,0,10.11,0c0.41,0,0.83,0,1.24,0.08c2.81,0.57,4.1,3.62,2.57,6.05c-0.1,0.16-0.21,0.32-0.31,0.46
		c1.3,2.14,1.3,3.35,0.02,5.29c1.47,2.69,1.29,4-0.61,5.87c0.04,1.16,0.24,2.16,0.07,3.09c-0.32,1.76-1.89,2.99-3.68,3
		c-5.74,0.03-11.48,0.08-17.22-0.03c-1.51-0.03-3-0.67-4.51-0.99c-0.69-0.15-1.41-0.27-2.12-0.27c-3.87-0.03-7.73-0.01-11.6-0.01
		c-1.36,0-1.79-0.42-1.79-1.77c0-5.47,0-10.94,0-16.4c0-1.25,0.45-1.7,1.68-1.71c1.27-0.01,2.55-0.08,3.81,0.01
		c2.39,0.17,4.58-0.4,6.81-1.26c1.95-0.75,3.25-1.86,4.27-3.66c1.31-2.3,2.13-4.64,1.99-7.3c-0.05-1.07-0.01-2.15-0.01-3.23
		c0-1.36,0.42-1.8,1.77-1.79c0.85,0.01,1.72-0.02,2.56,0.13c2.9,0.53,4.91,2.94,4.95,5.9c0.03,2.51,0.01,5.03,0.01,7.54
		C33.97,35.41,33.97,35.71,33.97,36.12z M34.09,38.81c-0.33,1.29-0.53,2.55-0.97,3.73c-1.18,3.15-3.39,5.37-6.5,6.68
		c-0.79,0.33-1.48,0.06-1.8-0.64c-0.31-0.69-0.03-1.37,0.74-1.77c0.2-0.1,0.41-0.17,0.6-0.28c3.08-1.61,4.93-4.14,5.1-7.59
		c0.18-3.83,0.09-7.67,0.04-11.51c-0.03-2.04-1.89-3.48-3.95-3.14c0,1.06,0.08,2.14-0.02,3.2c-0.14,1.39-0.15,2.88-0.69,4.13
		c-1,2.28-2.32,4.43-3.56,6.6c-0.15,0.27-0.55,0.44-0.87,0.57c-1.6,0.66-3.21,1.33-4.83,1.93c-0.51,0.19-0.64,0.45-0.63,0.96
		c0.02,4.53,0.01,9.05,0.01,13.58c0,0.24,0.03,0.47,0.05,0.73c0.71,0,1.35-0.02,1.98,0c0.91,0.03,1.86-0.07,2.71,0.18
		c3.26,0.99,6.57,1.32,9.96,1.15c1.1-0.06,2.21-0.01,3.31-0.01c0.23,0,0.47-0.03,0.75-0.05c-0.55-1.97,0.12-3.47,1.62-4.65
		c-0.83-1.66-0.59-3.18,0.49-4.58c-1.33-1.79-1.32-3.54,0.02-5.32c-0.97-1.14-1.22-2.44-0.8-3.91
		C35.86,38.81,34.96,38.81,34.09,38.81z M14.04,55.98c0-4.88,0-9.69,0-14.51c-1.77,0-3.49,0-5.19,0c0,4.87,0,9.68,0,14.51
		C10.59,55.98,12.27,55.98,14.04,55.98z M42.53,41.42c0.66,0,1.33,0.02,1.99-0.01c0.84-0.03,1.39-0.6,1.38-1.35
		c-0.01-0.72-0.55-1.27-1.35-1.29c-1.3-0.03-2.6-0.03-3.89,0c-0.84,0.02-1.39,0.59-1.38,1.34c0.01,0.72,0.55,1.26,1.34,1.29
		C41.26,41.44,41.89,41.42,42.53,41.42z M42.55,46.72c0.66,0,1.33,0.02,1.99-0.01c0.79-0.03,1.33-0.57,1.35-1.29
		c0.02-0.75-0.54-1.33-1.37-1.34c-1.3-0.03-2.6-0.03-3.89,0c-0.79,0.02-1.33,0.56-1.35,1.28c-0.02,0.75,0.54,1.31,1.37,1.35
		C41.28,46.74,41.92,46.72,42.55,46.72z M42.57,49.38C42.57,49.37,42.57,49.37,42.57,49.38c-0.58,0-1.16,0-1.74,0
		c-0.06,0-0.11,0-0.17,0c-0.84,0.05-1.4,0.58-1.39,1.33c0.01,0.72,0.54,1.29,1.33,1.31c1.32,0.03,2.65,0.03,3.97,0
		c0.78-0.02,1.32-0.6,1.31-1.32c-0.01-0.72-0.54-1.27-1.33-1.31C43.9,49.35,43.24,49.38,42.57,49.38z M41.26,54.68
		c-0.66,0-1.33-0.02-1.99,0.01c-0.79,0.04-1.32,0.59-1.32,1.31c0,0.72,0.53,1.3,1.31,1.32c1.32,0.03,2.65,0.03,3.97,0
		c0.79-0.02,1.32-0.59,1.32-1.31c0-0.72-0.53-1.28-1.32-1.32C42.59,54.65,41.93,54.68,41.26,54.68z"/>
	<path d="M26.49,4.8c0.3-0.92,0.58-1.81,0.88-2.7c0.46-1.37,1.4-2.12,2.64-2.1c1.22,0.01,2.13,0.74,2.58,2.08
		c0.21,0.63,0.44,1.25,0.59,1.89c0.15,0.64,0.43,0.92,1.13,0.85c0.74-0.08,1.49-0.03,2.23-0.01c1.26,0.03,2.21,0.73,2.56,1.85
		c0.35,1.1,0.01,2.18-0.96,2.94c-0.68,0.52-1.37,1.03-2.08,1.5c-0.37,0.25-0.42,0.5-0.28,0.89c0.27,0.75,0.52,1.51,0.75,2.28
		c0.39,1.28,0.05,2.4-0.92,3.1c-0.99,0.72-2.11,0.7-3.23-0.08c-0.79-0.55-1.57-1.13-2.41-1.74c-0.77,0.56-1.55,1.12-2.33,1.67
		c-1.19,0.84-2.34,0.88-3.37,0.12c-0.96-0.71-1.26-1.84-0.83-3.2c0.23-0.74,0.51-1.46,0.69-2.21c0.06-0.24-0.07-0.63-0.26-0.79
		c-0.63-0.53-1.33-0.98-1.99-1.48c-1.04-0.79-1.41-1.86-1.06-2.98c0.37-1.16,1.32-1.86,2.63-1.88C24.47,4.79,25.46,4.8,26.49,4.8z
		 M25.92,15.2c0.9-0.64,1.6-1.15,2.31-1.65c1.26-0.89,2.24-0.89,3.5-0.01c0.72,0.5,1.43,1.02,2.32,1.67
		c-0.33-1.03-0.61-1.86-0.87-2.69c-0.46-1.49-0.14-2.45,1.12-3.39c0.69-0.51,1.38-1.02,2.27-1.67c-1.09,0-1.91,0-2.73,0
		c-1.65-0.01-2.49-0.61-3.01-2.16c-0.26-0.79-0.52-1.59-0.86-2.61c-0.36,1.11-0.63,1.96-0.93,2.81c-0.46,1.33-1.33,1.95-2.73,1.96
		c-0.89,0.01-1.79,0-2.68,0c0.64,0.66,1.33,1.16,2,1.66c1.29,0.95,1.6,1.91,1.12,3.46C26.51,13.37,26.25,14.18,25.92,15.2z"/>
	<path d="M10.08,24.85c-0.83,0.6-1.63,1.2-2.44,1.76c-1.07,0.74-2.17,0.75-3.16,0.05c-0.95-0.68-1.32-1.79-0.96-3.01
		c0.23-0.79,0.49-1.58,0.78-2.35c0.16-0.44,0.07-0.69-0.32-0.95c-0.69-0.45-1.35-0.95-2.01-1.46c-0.98-0.76-1.33-1.82-0.99-2.93
		c0.36-1.13,1.3-1.84,2.55-1.87c1.02-0.02,2.04,0,3.09,0c0.3-0.93,0.58-1.82,0.88-2.71c0.46-1.36,1.41-2.11,2.65-2.09
		c1.21,0.02,2.12,0.75,2.57,2.09c0.3,0.89,0.58,1.78,0.88,2.72c0.99,0,1.95-0.01,2.92,0c1.38,0.01,2.35,0.68,2.73,1.86
		c0.37,1.14-0.02,2.23-1.1,3.04c-0.6,0.45-1.18,0.92-1.82,1.3c-0.52,0.31-0.55,0.65-0.35,1.16c0.25,0.64,0.44,1.31,0.64,1.96
		c0.44,1.39,0.13,2.54-0.88,3.25c-1.02,0.73-2.16,0.67-3.37-0.2c-0.7-0.5-1.39-1-2.08-1.51C10.26,24.93,10.2,24.91,10.08,24.85z
		 M10.2,12.22c-0.06,0-0.12,0-0.18,0c-0.26,0.81-0.51,1.61-0.78,2.42c-0.48,1.45-1.36,2.09-2.89,2.09c-0.86,0-1.72,0-2.58,0
		c0.66,0.67,1.35,1.16,2.03,1.67c1.25,0.93,1.58,1.91,1.13,3.39c-0.26,0.83-0.53,1.66-0.87,2.7c0.78-0.56,1.38-0.99,1.98-1.43
		c1.67-1.21,2.53-1.21,4.18-0.01c0.6,0.43,1.2,0.86,1.96,1.42c-0.24-0.79-0.42-1.39-0.61-1.99c-0.79-2.43-0.59-3.02,1.5-4.52
		c0.49-0.35,0.97-0.73,1.64-1.22c-1.14,0-2.01,0.01-2.89,0c-1.41-0.01-2.27-0.62-2.74-1.95C10.76,13.93,10.48,13.07,10.2,12.22z"/>
	<path d="M49.89,24.82c-0.84,0.61-1.64,1.2-2.45,1.76c-1.11,0.77-2.24,0.77-3.23,0.04c-0.93-0.69-1.27-1.8-0.91-3.03
		c0.21-0.71,0.43-1.43,0.7-2.12c0.21-0.53,0.18-0.89-0.36-1.22c-0.66-0.4-1.27-0.88-1.88-1.35c-1.02-0.78-1.37-1.87-1-3
		c0.37-1.11,1.33-1.8,2.59-1.82c0.83-0.02,1.66-0.03,2.48,0c0.44,0.02,0.63-0.14,0.75-0.56c0.22-0.8,0.49-1.58,0.77-2.36
		c0.43-1.21,1.37-1.9,2.53-1.9c1.17,0,2.1,0.68,2.53,1.9c0.29,0.8,0.5,1.64,0.82,2.43c0.08,0.21,0.4,0.44,0.62,0.45
		c0.85,0.05,1.71,0.01,2.57,0.03c1.27,0.03,2.21,0.7,2.58,1.83c0.37,1.12,0.02,2.22-1,3c-0.61,0.47-1.23,0.94-1.88,1.36
		c-0.48,0.3-0.62,0.6-0.39,1.14c0.28,0.69,0.49,1.4,0.71,2.12c0.38,1.26,0.04,2.42-0.9,3.11c-0.96,0.71-2.13,0.7-3.23-0.07
		C51.52,26.03,50.75,25.45,49.89,24.82z M56.27,16.89c-0.03-0.05-0.06-0.11-0.08-0.16c-0.83,0-1.66,0-2.48,0
		c-1.6-0.01-2.45-0.62-2.96-2.13c-0.27-0.8-0.52-1.6-0.78-2.4c-0.44,0.82-0.7,1.65-0.97,2.47c-0.48,1.42-1.35,2.05-2.84,2.06
		c-0.87,0.01-1.74,0-2.61,0c0.64,0.66,1.32,1.15,2,1.65c1.29,0.95,1.61,1.93,1.13,3.47c-0.25,0.81-0.52,1.61-0.85,2.64
		c0.85-0.61,1.51-1.09,2.18-1.57c1.45-1.03,2.39-1.03,3.85,0.03c0.64,0.46,1.29,0.93,2.12,1.53c-0.34-1.05-0.62-1.88-0.87-2.71
		c-0.45-1.45-0.13-2.43,1.08-3.33C54.86,17.91,55.57,17.41,56.27,16.89z"/>
</g>
</svg>
